<?xml version="1.0" encoding="utf-8"?>
<!-- Generator: Adobe Illustrator 22.0.1, SVG Export Plug-In . SVG Version: 6.00 Build 0)  -->
<svg version="1.1" id="Layer_1" xmlns="http://www.w3.org/2000/svg" xmlns:xlink="http://www.w3.org/1999/xlink" x="0px" y="0px"
	 width="55.4px" height="55.4px" viewBox="0 0 55.4 55.4" style="enable-background:new 0 0 55.4 55.4;" xml:space="preserve">
<style type="text/css">
	.st0{fill:none;stroke:#000000;stroke-linecap:round;stroke-linejoin:round;stroke-miterlimit:22.9256;}
</style>
<g>
	<path class="st0" d="M51.4,5.1l-1-1c-4.7-4.7-12.5-4.7-17.2,0L21.1,16.1c-4.7,4.7-4.7,12.5,0,17.2l1,1c1.1,1.1,2.3,1.9,3.6,2.5
		l3.4-3.4c0.9-0.9,1.3-2.2,1-3.4c-0.7-0.1-1.4-0.5-2-1l-1.7-1.7c-1.5-1.5-1.5-3.9,0-5.4L39,9.3c1.5-1.5,3.9-1.5,5.4,0l1.7,1.7
		c1.5,1.5,1.5,3.9,0,5.4l-9.2,9.2c1.5,3.4,1.4,7.4-0.4,10.8c1-0.5,2-1.2,2.8-2.1l12.1-12.1C56.1,17.5,56.1,9.8,51.4,5.1L51.4,5.1z"
		/>
	<path class="st0" d="M4,50.4l1,1c4.7,4.7,12.5,4.7,17.2,0l12.1-12.1c4.7-4.7,4.7-12.5,0-17.2l-1-1c-1.1-1.1-2.3-1.9-3.6-2.5
		L26.3,22c-0.9,0.9-1.3,2.2-1,3.4c0.7,0.1,1.4,0.5,2,1l1.7,1.7c1.5,1.5,1.5,3.9,0,5.4L16.4,46.1c-1.5,1.5-3.9,1.5-5.4,0l-1.7-1.7
		c-1.5-1.5-1.5-3.9,0-5.4l9.2-9.2c-1.5-3.4-1.4-7.4,0.4-10.8c-1,0.5-2,1.2-2.8,2.1L4,33.2C-0.7,37.9-0.7,45.6,4,50.4L4,50.4z"/>
</g>
</svg>
